#!OML:ASF F:\VICON\USERDATA\Patient Classification 1\PLAYGROUND\JustinFriday\JustinFriday.ASF
:FULLY-SPECIFIED
:DEGREES
2727
root 13.7191 26.6556 45.0836 364.496 -176.745 4.36087
lowerback 12.8724 -0.929622 5.24827
upperback 9.59899 -2.54624 3.75606
thorax 2.94666 -1.86295 1.20392
lowerneck -38.0741 -4.78571 -10.8532
upperneck 10.9249 -1.66015 6.94121
head 9.43175 -0.0517017 4.00117
rclavicle -2.62396e-014 1.07344e-014
rhumerus 97.0357 -1.49916 -71.5377
rradius 86.567
rwrist 12.7917
rhand -11.8083 -18.8106
rfingers 7.12502
rthumb 14.2417 -48.3023
lclavicle -2.62396e-014 1.07344e-014
lhumerus 92.0229 19.117 74.0092
lradius 81.899
lwrist -14.6072
lhand 4.81458 1.90753
lfingers 7.12502
lthumb 30.1931 29.4597
rfemur -10.3681 2.47378 29.6119
rtibia 32.4381
rfoot -31.1329 -26.9127
rtoes 25.6174
lfemur -11.2183 2.10289 -12.6882
ltibia 34.3915
lfoot -39.4586 2.54463
ltoes -11.5794
2728
root 13.7271 26.6498 45.0714 364.323 -176.508 4.36464
lowerback 13.267 -1.0177 5.29239
upperback 9.62608 -2.65631 3.76517
thorax 2.76467 -1.93075 1.21696
lowerneck -37.9609 -4.77535 -10.9485
upperneck 10.7404 -1.62057 7.06486
head 9.3483 -0.0147282 4.0659
rclavicle -1.59028e-015 9.14409e-015
rhumerus 97.2923 -1.46538 -71.5455
rradius 86.6512
rwrist 12.7877
rhand -12.3069 -18.5487
rfingers 7.12502
rthumb 13.7613 -48.0736
lclavicle -1.59028e-015 9.14409e-015
lhumerus 92.1243 19.441 73.8615
lradius 82.0242
lwrist -14.406
lhand 4.5708 1.91283
lfingers 7.12502
lthumb 29.9605 29.5072
rfemur -10.1483 2.6068 29.6862
rtibia 32.4555
rfoot -31.4142 -27.1753
rtoes 25.7847
lfemur -11.0364 1.84142 -12.6609
ltibia 34.384
lfoot -39.4994 2.5648
ltoes -10.9681
2729
root 13.7445 26.6466 45.043 364.628 -176.89 4.42345
lowerback 12.8721 -0.856452 5.09298
upperback 9.62299 -2.47261 3.78855
thorax 2.97805 -1.83706 1.31607
lowerneck -37.7629 -4.72416 -11.115
upperneck 10.6443 -1.53883 7.26781
head 9.28401 0.038627 4.17856
rclavicle -1.43125e-014 5.08889e-014
rhumerus 97.5512 -1.41637 -71.5719
rradius 86.7696
rwrist 12.9521
rhand -12.5683 -18.5324
rfingers 7.12502
rthumb 13.5093 -48.0742
lclavicle -1.43125e-014 5.08889e-014
lhumerus 92.2168 19.9343 73.5442
lradius 81.9493
lwrist -14.0663
lhand 4.15018 1.88156
lfingers 7.12502
lthumb 29.5591 29.5478
rfemur -10.3364 2.98623 29.8204
rtibia 32.4654
rfoot -31.683 -27.298
rtoes 25.4988
lfemur -11.1706 2.66839 -12.4795
ltibia 34.38
lfoot -39.7225 2.29776
ltoes -10.7362
2730
root 13.7452 26.6472 45.0225 364.789 -176.834 4.40197
lowerback 12.8143 -0.911564 5.2264
upperback 9.58025 -2.51933 3.74808
thorax 2.95747 -1.84652 1.20309
lowerneck -37.6404 -4.70588 -11.2576
upperneck 10.6585 -1.50093 7.40772
head 9.27266 0.0607798 4.25837
rclavicle 1.90833e-014 -5.1684e-015
rhumerus 97.7244 -1.35316 -71.6749
rradius 87.1626
rwrist 12.994
rhand -12.3758 -18.7167
rfingers 7.12502
rthumb 13.6948 -48.2461
lclavicle 1.90833e-014 -5.1684e-015
lhumerus 92.3637 20.2483 73.3933
lradius 81.8956
lwrist -13.8142
lhand 4.00977 2.00474
lfingers 7.12502
lthumb 29.425 29.6946
rfemur -10.4355 2.87554 29.8033
rtibia 32.4502
rfoot -32.2468 -27.9146
rtoes 24.2759
lfemur -11.3117 2.71052 -12.4846
ltibia 34.4234
lfoot -39.8847 2.14295
ltoes -10.6686
2731
root 13.7559 26.6381 45.0078 364.762 -177.068 4.55373
lowerback 13.06 -0.827037 5.28144
upperback 9.58936 -2.40403 3.78649
thorax 2.83928 -1.79839 1.21056
lowerneck -37.4147 -4.71566 -11.3484
upperneck 10.4818 -1.50857 7.50176
head 9.18121 0.066576 4.30075
rclavicle -3.57812e-015 5.28767e-014
rhumerus 98.072 -1.1745 -71.8518
rradius 87.3518
rwrist 13.0302
rhand -12.3263 -18.6944
rfingers 7.12502
rthumb 13.7426 -48.2205
lclavicle -3.57812e-015 5.28767e-014
lhumerus 92.5704 20.334 73.5079
lradius 82.1075
lwrist -13.7565
lhand 4.16692 2.15927
lfingers 7.12502
lthumb 29.575 29.8227
rfemur -10.3237 3.01961 29.9995
rtibia 32.4196
rfoot -32.5015 -29.1273
rtoes 22.6934
lfemur -11.2093 3.04358 -12.2719
ltibia 34.4909
lfoot -40.0159 2.02532
ltoes -10.565
2732
root 13.7528 26.6307 44.9925 364.88 -176.514 4.79369
lowerback 12.9919 -1.05565 5.78707
upperback 9.55001 -2.66457 3.85916
thorax 2.82514 -1.90689 1.03128
lowerneck -37.2354 -4.77052 -11.4361
upperneck 10.2825 -1.57283 7.6332
head 9.09434 0.0546893 4.34738
rclavicle -1.98785e-014 4.05521e-014
rhumerus 98.3614 -1.04969 -71.9415
rradius 87.3778
rwrist 13.2184
rhand -12.6592 -18.5693
rfingers 7.12502
rthumb 13.4217 -48.1169
lclavicle -1.98785e-014 4.05521e-014
lhumerus 92.8153 20.4272 73.6689
lradius 82.3141
lwrist -13.7922
lhand 4.24019 2.13014
lfingers 7.12502
lthumb 29.645 29.7811
rfemur -10.4334 2.6863 30.3127
rtibia 32.3959
rfoot -32.1424 -29.1881
rtoes 23.5182
lfemur -11.4844 2.86096 -11.9485
ltibia 34.5771
lfoot -40.0622 1.83964
ltoes -10.7194
2733
root 13.7514 26.6234 44.9785 364.879 -175.959 4.82781
lowerback 13.1109 -1.2791 6.06663
upperback 9.5271 -2.92742 3.87978
thorax 2.72758 -2.02943 0.932231
lowerneck -37.1504 -4.78553 -11.5162
upperneck 10.1846 -1.57772 7.73643
head 9.05055 0.0644407 4.39519
rclavicle -1.86858e-014 -5.4467e-014
rhumerus 98.6392 -0.979984 -72.0123
rradius 87.7872
rwrist 13.3122
rhand -12.4674 -18.9647
rfingers 7.12502
rthumb 13.6066 -48.5001
lclavicle -1.86858e-014 -5.4467e-014
lhumerus 93.0241 20.5666 73.8018
lradius 82.5098
lwrist -13.76
lhand 4.39874 2.14515
lfingers 7.12502
lthumb 29.7963 29.7691
rfemur -10.4115 2.42074 30.4103
rtibia 32.3914
rfoot -33.0134 -30.5065
rtoes 21.3066
lfemur -11.6149 2.57995 -11.8614
ltibia 34.6558
lfoot -40.0946 1.5738
ltoes -10.6457
